<?xml version="1.0" encoding="UTF-8"?>
<svg width="794px" height="920px" viewBox="0 0 794 920" version="1.1" xmlns="http://www.w3.org/2000/svg" xmlns:xlink="http://www.w3.org/1999/xlink">
    <!-- Generator: Sketch 55.2 (78181) - https://sketchapp.com -->
    <title>Path</title>
    <desc>Created with Sketch.</desc>
    <g id="Page-1" stroke="none" stroke-width="1" fill="none" fill-rule="evenodd">
        <g id="Artboard" transform="translate(-602.000000, -33.000000)" fill="#A9FF00">
            <path d="M605.982729,947.203321 C606.531492,917.201744 606.531492,894.692808 605.982729,879.676513 C605.433966,864.660219 604.10639,850.84149 602,838.220327 C604.655153,860.017795 605.982729,842.353764 605.982729,785.228235 C605.982729,737.219302 611.632785,666.627887 609.757475,578.085174 C609.520068,566.876036 606.934243,550.103376 602,527.767195 C603.75509,513.924451 605.082666,502.30224 605.982729,492.900561 C607.476874,477.293354 611.079449,458.254603 609.757475,437.11503 C607.784361,405.563142 611.81583,364.371027 609.757475,310.541362 C609.379569,300.658458 608.121321,284.682602 605.982729,262.613795 C608.045271,240.141543 609.303519,222.058125 609.757475,208.363541 C610.21143,194.668956 608.953182,172.510207 605.982729,141.887291 C608.475529,120.687671 609.733778,104.335122 609.757475,92.8296439 C609.79302,75.571427 609.721929,79.9935485 609.757475,39.330109 C609.767361,28.0200436 665.888838,35.8585803 673.259324,33.2842342 C687.558023,37.3148174 700.134567,39.330109 710.988958,39.330109 C721.843348,39.330109 737.990477,37.3148174 759.430343,33.2842342 C779.888459,37.3148174 805.913385,39.330109 837.505121,39.330109 C869.096858,39.330109 917.151946,37.3148174 981.670385,33.2842342 C1014.57425,36.9584501 1044.83617,38.9737416 1072.45617,39.330109 C1100.07616,39.6864763 1141.23392,38.5926781 1195.92944,36.0487145 C1240.55657,38.5473556 1273.91342,39.6411538 1296,39.330109 C1318.08658,39.0190642 1350.16286,37.0037726 1392.22886,33.2842342 C1390.25473,76.8103265 1389.43518,108.431266 1389.77021,128.147052 C1390.10524,147.862839 1391.8485,170.601035 1395,196.361641 C1391.84274,247.610147 1390.09947,285.670054 1389.77021,310.541362 C1389.44095,335.41267 1390.2605,367.126947 1392.22886,405.684194 C1390.19596,423.115937 1389.37641,446.206282 1389.77021,474.955231 C1390.16401,503.704179 1391.90727,548.049424 1395,607.990965 C1395.55293,656.532787 1395.55293,690.674762 1395,710.416892 C1393.70243,756.745787 1389.77021,791.523758 1389.77021,819.816982 C1389.77021,834.026498 1391.08797,848.259414 1392.22886,857.421762 C1394.07629,872.258263 1395,879.676513 1395,879.676513 L1389.77021,938.222404 C1388.60882,942.309549 1383.96151,945.303188 1375.82829,947.203321 C1367.69506,949.103455 1353.35616,950.874643 1332.81161,952.516887 C1312.3682,947.595596 1296.58922,944.885006 1285.47469,944.385118 C1253.6882,942.955487 1219.68922,947.506534 1193.23709,947.203321 C1176.6499,947.013187 1161.89885,944.111302 1149.244,944.385118 C1137.16992,944.646368 1123.12929,946.49462 1107.1221,949.929874 C1073.09152,947.810937 1048.05048,946.902086 1031.99897,947.203321 C1015.94746,947.504557 995.03831,949.275745 969.271517,952.516887 C962.45582,948.97451 944.394812,947.203321 915.088491,947.203321 C903.914122,947.203321 889.278178,945.968885 876.001481,947.203321 C862.879787,948.423346 851.132491,952.10998 837.505121,952.516887 C825.634883,952.871327 808.57818,944.456882 788.133741,944.385118 C779.094021,944.353387 763.948384,947.063977 742.696832,952.516887 C699.048359,947.708996 669.334399,944.998406 653.554951,944.385118 C637.775503,943.77183 621.918096,944.711231 605.982729,947.203321 Z" id="Path"></path>
        </g>
    </g>
</svg>